# xmcd
#
# Track frame offsets: 
#        150
#        24605
#        40548
#        65463
#        86448
#        103661
#        123691
#        154854
#        173214
#        191899
#        214403
#        235412
#        250946
#        280217
#
# Disc length: 4062 seconds
#
# Revision: 1
# Processed by: cddbd v1.4PL0 Copyright (c) Steve Scherf et al.
# Submitted via: ExactAudioCopy v0.90b4
#
DISCID=ca0fdc0e
DTITLE=Various Artist - French Sounds
DYEAR=2002
DGENRE=Euro-Techno
TTITLE0=Telepopmusik - Love Can Damage Your Health (Sascha Funke Remix
TTITLE0=)
TTITLE1=Bosco - 5 Years
TTITLE2=Vitalic - You Prefer Cocaïne
TTITLE3=Dat Politics - Tout Bleu
TTITLE4=Electronicat - Amour Salé
TTITLE5=D.I.P. - In The High
TTITLE6=Avril - The Date (Chloé Bad Boy Remix)
TTITLE7=Williams Traffic - People D. Mansion
TTITLE8=Readymade feat. Juice Aleem - Lonely Boy
TTITLE9=Sporto Kantes - Mundo (Troublemakers Remix)
TTITLE10=Doctor. L - It's Bad, So Bad
TTITLE11=Domotic - Smith Kline
TTITLE12=M83 - Carresses
TTITLE13=Avia - Exil Exit
EXTD=
EXTT0=
EXTT1=
EXTT2=
EXTT3=
EXTT4=
EXTT5=
EXTT6=
EXTT7=
EXTT8=
EXTT9=
EXTT10=
EXTT11=
EXTT12=
EXTT13=
PLAYORDER=
